<svg width="24" height="24" viewBox="0 0 24 24" fill="none" xmlns="http://www.w3.org/2000/svg">
<path d="M22.56 12.25C22.56 11.45 22.49 10.68 22.36 9.92H12V14.45H18.02C17.73 15.89 16.93 17.13 15.73 17.92V20.59H19.6C21.56 18.75 22.56 15.77 22.56 12.25Z" fill="#4285F4"/>
<path d="M12 23C14.97 23 17.47 22.02 19.22 20.47L15.73 17.92C14.73 18.57 13.45 19 12 19C9.27 19 6.94 17.23 6.02 14.81H2.05V17.58C3.92 20.88 7.7 23 12 23Z" fill="#34A853"/>
<path d="M6.02 14.81C5.77 14.09 5.62 13.32 5.62 12.5C5.62 11.68 5.77 10.91 6.02 10.19V7.42H2.05C1.27 8.99 0.75 10.69 0.75 12.5C0.75 14.31 1.27 16.01 2.05 17.58L6.02 14.81Z" fill="#FBBC05"/>
<path d="M12 5.5C13.59 5.5 15.02 6.08 16.13 7.13L19.29 4C17.47 2.28 14.97 1 12 1C7.7 1 3.92 3.12 2.05 6.42L6.02 9.19C6.94 6.77 9.27 5 12 5V5.5Z" fill="#EA4335"/>
</svg>
